<?xml version="1.0" encoding="utf-8"?>
<!-- Generator: Adobe Illustrator 23.0.1, SVG Export Plug-In . SVG Version: 6.00 Build 0)  -->
<svg version="1.1" id="Camada_1" xmlns="http://www.w3.org/2000/svg" xmlns:xlink="http://www.w3.org/1999/xlink" x="0px" y="0px"
	 viewBox="0 0 300 85.19" style="enable-background:new 0 0 300 85.19;" xml:space="preserve">
<style type="text/css">
	.st0{clip-path:url(#SVGID_2_);fill:#CF1219;}
	.st1{fill:#CF1219;}
	.st2{clip-path:url(#SVGID_4_);fill:#CF1219;}
	.st3{clip-path:url(#SVGID_4_);fill:#1D1D1B;}
	.st4{fill:#1D1D1B;}
	.st5{clip-path:url(#SVGID_6_);fill:#1D1D1B;}
	.st6{clip-path:url(#SVGID_8_);fill:#1D1D1B;}
	.st7{clip-path:url(#SVGID_8_);fill:#CF1219;}
	.st8{clip-path:url(#SVGID_10_);fill:#CF1219;}
	.st9{clip-path:url(#SVGID_12_);fill:#CF1219;}
</style>
<g>
	<defs>
		<rect id="SVGID_1_" x="9.3" y="6.71" width="280.4" height="74.7"/>
	</defs>
	<clipPath id="SVGID_2_">
		<use xlink:href="#SVGID_1_"  style="overflow:visible;"/>
	</clipPath>
	<path class="st0" d="M153.35,75.96l1.15,0.29c-0.24,0.94-0.67,1.65-1.3,2.15c-0.62,0.49-1.39,0.74-2.29,0.74
		c-0.93,0-1.69-0.19-2.27-0.57s-1.03-0.93-1.33-1.65c-0.3-0.72-0.46-1.5-0.46-2.32c0-0.9,0.17-1.69,0.52-2.36
		c0.34-0.67,0.83-1.18,1.47-1.53c0.64-0.35,1.33-0.52,2.1-0.52c0.86,0,1.59,0.22,2.18,0.66c0.59,0.44,1,1.06,1.24,1.86l-1.13,0.27
		c-0.2-0.63-0.49-1.09-0.88-1.38c-0.38-0.29-0.86-0.43-1.44-0.43c-0.66,0-1.22,0.16-1.67,0.48c-0.45,0.32-0.76,0.75-0.94,1.29
		c-0.18,0.54-0.27,1.09-0.27,1.66c0,0.73,0.11,1.38,0.32,1.93c0.22,0.55,0.55,0.96,1,1.23c0.45,0.27,0.94,0.41,1.47,0.41
		c0.64,0,1.18-0.19,1.63-0.55C152.89,77.24,153.19,76.69,153.35,75.96"/>
	<path class="st0" d="M155.37,75.86c0-1.16,0.32-2.02,0.97-2.58c0.54-0.46,1.2-0.7,1.97-0.7c0.86,0,1.57,0.28,2.12,0.85
		c0.55,0.56,0.82,1.34,0.82,2.34c0,0.81-0.12,1.44-0.36,1.9s-0.6,0.82-1.06,1.08s-0.97,0.38-1.52,0.38c-0.88,0-1.59-0.28-2.13-0.85
		C155.65,77.73,155.37,76.92,155.37,75.86 M156.47,75.86c0,0.81,0.17,1.41,0.53,1.8c0.35,0.4,0.79,0.6,1.32,0.6s0.97-0.2,1.32-0.6
		c0.35-0.4,0.53-1.01,0.53-1.84c0-0.77-0.17-1.36-0.53-1.77c-0.35-0.4-0.79-0.6-1.32-0.6c-0.53,0-0.97,0.2-1.32,0.6
		C156.64,74.45,156.47,75.06,156.47,75.86"/>
	<path class="st0" d="M162.5,79v-6.27h0.95v0.88c0.2-0.3,0.46-0.55,0.79-0.74c0.32-0.19,0.7-0.28,1.11-0.28
		c0.47,0,0.85,0.09,1.15,0.29c0.3,0.19,0.51,0.46,0.63,0.81c0.5-0.73,1.14-1.1,1.94-1.1c0.62,0,1.1,0.17,1.44,0.52
		c0.34,0.34,0.5,0.87,0.5,1.59V79h-1.06v-3.95c0-0.42-0.03-0.73-0.1-0.92c-0.07-0.19-0.2-0.34-0.38-0.45
		c-0.18-0.11-0.39-0.17-0.64-0.17c-0.44,0-0.81,0.15-1.1,0.44c-0.29,0.29-0.43,0.76-0.43,1.41V79h-1.07v-4.08
		c0-0.47-0.08-0.83-0.26-1.06c-0.17-0.24-0.45-0.36-0.85-0.36c-0.3,0-0.57,0.08-0.83,0.24c-0.25,0.16-0.44,0.39-0.55,0.69
		c-0.11,0.3-0.17,0.74-0.17,1.31V79H162.5z"/>
	<path class="st0" d="M172.58,81.4v-8.68h0.97v0.81c0.23-0.32,0.49-0.56,0.77-0.72c0.28-0.16,0.63-0.24,1.04-0.24
		c0.54,0,1.01,0.14,1.42,0.41c0.41,0.28,0.72,0.67,0.93,1.17c0.21,0.5,0.32,1.05,0.32,1.65c0,0.64-0.12,1.22-0.35,1.73
		c-0.23,0.51-0.56,0.91-1.01,1.18c-0.44,0.27-0.9,0.41-1.38,0.41c-0.36,0-0.67-0.08-0.96-0.23c-0.28-0.15-0.51-0.34-0.69-0.56v3.05
		H172.58z M173.54,75.9c0,0.81,0.17,1.4,0.49,1.79c0.33,0.38,0.72,0.58,1.19,0.58c0.47,0,0.88-0.2,1.21-0.6
		c0.34-0.4,0.51-1.02,0.51-1.86c0-0.8-0.16-1.4-0.49-1.8c-0.33-0.4-0.72-0.6-1.18-0.6c-0.45,0-0.85,0.21-1.2,0.64
		C173.71,74.47,173.54,75.09,173.54,75.9"/>
	<path class="st0" d="M183.4,78.22c-0.39,0.33-0.78,0.57-1.14,0.71c-0.37,0.14-0.76,0.21-1.18,0.21c-0.69,0-1.22-0.17-1.59-0.51
		c-0.37-0.34-0.55-0.77-0.55-1.29c0-0.31,0.07-0.59,0.21-0.85c0.14-0.25,0.32-0.45,0.55-0.61c0.23-0.15,0.48-0.27,0.77-0.35
		c0.21-0.05,0.52-0.11,0.94-0.16c0.86-0.1,1.49-0.23,1.9-0.37c0-0.15,0-0.24,0-0.28c0-0.43-0.1-0.74-0.3-0.92
		c-0.27-0.24-0.68-0.36-1.21-0.36c-0.5,0-0.87,0.09-1.11,0.26c-0.24,0.18-0.41,0.49-0.53,0.93l-1.04-0.14
		c0.09-0.44,0.25-0.81,0.47-1.08c0.22-0.27,0.53-0.49,0.94-0.63c0.41-0.15,0.88-0.22,1.42-0.22s0.97,0.06,1.31,0.19
		c0.33,0.13,0.58,0.28,0.74,0.47c0.16,0.19,0.27,0.43,0.33,0.73c0.04,0.18,0.05,0.51,0.05,0.98v1.42c0,0.99,0.02,1.62,0.07,1.88
		c0.04,0.26,0.13,0.51,0.26,0.75h-1.11C183.5,78.78,183.43,78.52,183.4,78.22 M183.31,75.85c-0.39,0.16-0.97,0.29-1.74,0.4
		c-0.43,0.06-0.75,0.13-0.92,0.21c-0.19,0.08-0.32,0.19-0.42,0.35c-0.1,0.15-0.15,0.32-0.15,0.5c0,0.28,0.11,0.52,0.32,0.71
		c0.21,0.19,0.53,0.28,0.94,0.28c0.41,0,0.77-0.09,1.09-0.26c0.32-0.18,0.55-0.43,0.7-0.74c0.11-0.24,0.17-0.59,0.17-1.06V75.85z"/>
	<path class="st0" d="M186.03,79v-6.27h0.96v0.89c0.46-0.69,1.13-1.03,2-1.03c0.38,0,0.72,0.07,1.04,0.2
		c0.32,0.14,0.55,0.32,0.71,0.54c0.16,0.22,0.27,0.48,0.33,0.78c0.04,0.2,0.06,0.54,0.06,1.03V79h-1.07v-3.82
		c0-0.43-0.04-0.75-0.12-0.97c-0.08-0.21-0.23-0.38-0.44-0.51c-0.21-0.13-0.46-0.19-0.74-0.19c-0.45,0-0.85,0.15-1.17,0.43
		c-0.33,0.29-0.49,0.83-0.49,1.64V79H186.03z"/>
	<path class="st0" d="M192.76,79v-8.66h1.06v3.11c0.5-0.58,1.12-0.86,1.88-0.86c0.46,0,0.87,0.09,1.21,0.27
		c0.34,0.18,0.59,0.44,0.74,0.76c0.15,0.32,0.22,0.79,0.22,1.41V79h-1.07v-3.98c0-0.53-0.11-0.92-0.34-1.16
		c-0.23-0.24-0.56-0.37-0.98-0.37c-0.31,0-0.61,0.08-0.89,0.25c-0.28,0.16-0.47,0.38-0.59,0.66c-0.12,0.28-0.18,0.66-0.18,1.16V79
		H192.76z"/>
</g>
<path class="st1" d="M199.49,79h1.07v-6.27h-1.07V79z M199.49,71.56h1.07v-1.22h-1.07V71.56z"/>
<g>
	<defs>
		<rect id="SVGID_3_" x="9.3" y="6.71" width="280.4" height="74.7"/>
	</defs>
	<clipPath id="SVGID_4_">
		<use xlink:href="#SVGID_3_"  style="overflow:visible;"/>
	</clipPath>
	<path class="st2" d="M206.27,78.22c-0.39,0.33-0.77,0.57-1.14,0.71c-0.36,0.14-0.75,0.21-1.17,0.21c-0.69,0-1.22-0.17-1.59-0.51
		c-0.37-0.34-0.56-0.77-0.56-1.29c0-0.31,0.07-0.59,0.21-0.85c0.14-0.25,0.32-0.45,0.55-0.61c0.23-0.15,0.49-0.27,0.77-0.35
		c0.21-0.05,0.52-0.11,0.94-0.16c0.86-0.1,1.49-0.23,1.9-0.37c0-0.15,0-0.24,0-0.28c0-0.43-0.1-0.74-0.3-0.92
		c-0.27-0.24-0.68-0.36-1.21-0.36c-0.5,0-0.87,0.09-1.11,0.26c-0.24,0.18-0.41,0.49-0.53,0.93L202,74.51
		c0.09-0.44,0.25-0.81,0.47-1.08c0.21-0.27,0.53-0.49,0.94-0.63c0.41-0.15,0.88-0.22,1.42-0.22s0.97,0.06,1.31,0.19
		c0.33,0.13,0.58,0.28,0.74,0.47c0.16,0.19,0.26,0.43,0.33,0.73c0.03,0.18,0.05,0.51,0.05,0.98v1.42c0,0.99,0.02,1.62,0.07,1.88
		c0.05,0.26,0.14,0.51,0.27,0.75h-1.11C206.37,78.78,206.3,78.52,206.27,78.22 M206.18,75.85c-0.39,0.16-0.97,0.29-1.74,0.4
		c-0.43,0.06-0.75,0.13-0.93,0.21c-0.18,0.08-0.32,0.19-0.42,0.35c-0.1,0.15-0.15,0.32-0.15,0.5c0,0.28,0.11,0.52,0.32,0.71
		c0.21,0.19,0.53,0.28,0.94,0.28c0.41,0,0.77-0.09,1.09-0.26c0.32-0.18,0.56-0.43,0.7-0.74c0.11-0.24,0.17-0.59,0.17-1.06V75.85z"/>
	<path class="st2" d="M216.33,79V78.2c-0.4,0.62-0.98,0.94-1.75,0.94c-0.5,0-0.96-0.14-1.38-0.41c-0.42-0.27-0.75-0.66-0.98-1.15
		c-0.23-0.5-0.35-1.06-0.35-1.71c0-0.62,0.11-1.19,0.31-1.7c0.21-0.51,0.53-0.9,0.94-1.17c0.42-0.27,0.88-0.41,1.4-0.41
		c0.38,0,0.71,0.08,1.01,0.24c0.3,0.16,0.53,0.37,0.72,0.62v-3.11h1.06V79H216.33z M212.97,75.87c0,0.81,0.17,1.41,0.51,1.8
		c0.34,0.4,0.73,0.6,1.2,0.6c0.47,0,0.86-0.19,1.18-0.57c0.33-0.38,0.49-0.96,0.49-1.74c0-0.86-0.17-1.49-0.5-1.89
		c-0.33-0.4-0.73-0.6-1.22-0.6c-0.47,0-0.86,0.2-1.18,0.58C213.13,74.43,212.97,75.04,212.97,75.87"/>
	<path class="st2" d="M223.09,78.22c-0.39,0.33-0.78,0.57-1.14,0.71c-0.37,0.14-0.76,0.21-1.18,0.21c-0.69,0-1.22-0.17-1.59-0.51
		c-0.37-0.34-0.55-0.77-0.55-1.29c0-0.31,0.07-0.59,0.21-0.85c0.14-0.25,0.32-0.45,0.55-0.61c0.23-0.15,0.48-0.27,0.77-0.35
		c0.21-0.05,0.52-0.11,0.94-0.16c0.86-0.1,1.49-0.23,1.9-0.37c0-0.15,0-0.24,0-0.28c0-0.43-0.1-0.74-0.3-0.92
		c-0.27-0.24-0.68-0.36-1.21-0.36c-0.5,0-0.86,0.09-1.11,0.26c-0.24,0.18-0.41,0.49-0.53,0.93l-1.04-0.14
		c0.09-0.44,0.25-0.81,0.47-1.08c0.22-0.27,0.53-0.49,0.94-0.63c0.41-0.15,0.88-0.22,1.43-0.22c0.53,0,0.97,0.06,1.3,0.19
		s0.58,0.28,0.74,0.47c0.16,0.19,0.27,0.43,0.33,0.73c0.04,0.18,0.05,0.51,0.05,0.98v1.42c0,0.99,0.02,1.62,0.07,1.88
		c0.04,0.26,0.13,0.51,0.26,0.75h-1.11C223.19,78.78,223.12,78.52,223.09,78.22 M223,75.85c-0.39,0.16-0.97,0.29-1.74,0.4
		c-0.43,0.06-0.75,0.13-0.92,0.21c-0.18,0.08-0.32,0.19-0.42,0.35c-0.1,0.15-0.15,0.32-0.15,0.5c0,0.28,0.11,0.52,0.32,0.71
		c0.21,0.19,0.53,0.28,0.94,0.28c0.41,0,0.77-0.09,1.09-0.26c0.32-0.18,0.55-0.43,0.7-0.74c0.11-0.24,0.17-0.59,0.17-1.06V75.85z"/>
	<path class="st2" d="M235.4,75.96l1.15,0.29c-0.24,0.94-0.68,1.65-1.3,2.15c-0.62,0.49-1.39,0.74-2.29,0.74
		c-0.93,0-1.69-0.19-2.27-0.57c-0.58-0.38-1.03-0.93-1.33-1.65c-0.3-0.72-0.46-1.5-0.46-2.32c0-0.9,0.17-1.69,0.52-2.36
		c0.34-0.67,0.83-1.18,1.47-1.53c0.64-0.35,1.33-0.52,2.1-0.52c0.86,0,1.6,0.22,2.19,0.66c0.59,0.44,1,1.06,1.23,1.86l-1.13,0.27
		c-0.21-0.63-0.49-1.09-0.88-1.38s-0.86-0.43-1.44-0.43c-0.67,0-1.22,0.16-1.67,0.48c-0.45,0.32-0.76,0.75-0.94,1.29
		c-0.18,0.54-0.27,1.09-0.27,1.66c0,0.73,0.11,1.38,0.32,1.93c0.22,0.55,0.55,0.96,1,1.23c0.45,0.27,0.94,0.41,1.47,0.41
		c0.64,0,1.18-0.19,1.63-0.55C234.94,77.24,235.24,76.69,235.4,75.96"/>
	<path class="st2" d="M237.42,75.86c0-1.16,0.32-2.02,0.97-2.58c0.54-0.46,1.2-0.7,1.97-0.7c0.86,0,1.57,0.28,2.12,0.85
		c0.55,0.56,0.82,1.34,0.82,2.34c0,0.81-0.12,1.44-0.36,1.9c-0.24,0.46-0.6,0.82-1.06,1.08s-0.97,0.38-1.52,0.38
		c-0.88,0-1.59-0.28-2.13-0.85C237.7,77.73,237.42,76.92,237.42,75.86 M238.52,75.86c0,0.81,0.17,1.41,0.53,1.8
		c0.35,0.4,0.79,0.6,1.32,0.6s0.97-0.2,1.32-0.6c0.35-0.4,0.53-1.01,0.53-1.84c0-0.77-0.18-1.36-0.53-1.77
		c-0.35-0.4-0.79-0.6-1.32-0.6c-0.53,0-0.97,0.2-1.32,0.6C238.69,74.45,238.52,75.06,238.52,75.86"/>
	<path class="st2" d="M244.55,79v-6.27h0.96v0.89c0.46-0.69,1.13-1.03,1.99-1.03c0.38,0,0.73,0.07,1.04,0.2
		c0.32,0.14,0.56,0.32,0.71,0.54c0.16,0.22,0.27,0.48,0.34,0.78c0.04,0.2,0.06,0.54,0.06,1.03V79h-1.07v-3.82
		c0-0.43-0.04-0.75-0.12-0.97c-0.08-0.21-0.23-0.38-0.44-0.51c-0.21-0.13-0.46-0.19-0.74-0.19c-0.45,0-0.85,0.15-1.18,0.43
		c-0.33,0.29-0.49,0.83-0.49,1.64V79H244.55z"/>
	<path class="st2" d="M250.85,77.12l1.05-0.17c0.06,0.42,0.23,0.75,0.49,0.97c0.27,0.22,0.64,0.34,1.13,0.34
		c0.49,0,0.85-0.1,1.09-0.3c0.23-0.2,0.36-0.43,0.36-0.7c0-0.24-0.11-0.43-0.32-0.57c-0.15-0.09-0.51-0.21-1.09-0.36
		c-0.78-0.2-1.32-0.37-1.62-0.51s-0.53-0.34-0.69-0.6c-0.15-0.26-0.23-0.54-0.23-0.84c0-0.28,0.07-0.54,0.19-0.78
		c0.13-0.24,0.3-0.44,0.52-0.59c0.17-0.12,0.39-0.23,0.68-0.31c0.28-0.09,0.59-0.13,0.92-0.13c0.49,0,0.92,0.07,1.3,0.21
		c0.37,0.14,0.65,0.33,0.82,0.57c0.18,0.24,0.3,0.57,0.37,0.97l-1.04,0.15c-0.05-0.32-0.19-0.58-0.41-0.76
		c-0.23-0.18-0.54-0.27-0.96-0.27c-0.49,0-0.84,0.08-1.05,0.24c-0.21,0.16-0.31,0.35-0.31,0.56c0,0.14,0.04,0.26,0.13,0.38
		c0.09,0.11,0.22,0.21,0.41,0.28c0.11,0.04,0.42,0.13,0.94,0.27c0.75,0.2,1.28,0.36,1.57,0.49c0.3,0.13,0.53,0.32,0.7,0.56
		c0.17,0.24,0.25,0.55,0.25,0.91c0,0.36-0.1,0.69-0.31,1c-0.21,0.31-0.5,0.55-0.89,0.72c-0.39,0.17-0.83,0.26-1.32,0.26
		c-0.82,0-1.44-0.17-1.86-0.51C251.24,78.29,250.97,77.79,250.85,77.12"/>
	<path class="st2" d="M259.65,78.05l0.15,0.94c-0.3,0.06-0.56,0.09-0.8,0.09c-0.39,0-0.69-0.06-0.9-0.18
		c-0.21-0.12-0.36-0.28-0.45-0.49c-0.09-0.2-0.13-0.62-0.13-1.25v-3.61h-0.78v-0.83h0.78v-1.55l1.06-0.64v2.19h1.07v0.83h-1.07v3.67
		c0,0.3,0.02,0.5,0.05,0.58c0.04,0.09,0.1,0.16,0.19,0.21c0.08,0.05,0.21,0.08,0.36,0.08C259.3,78.09,259.45,78.07,259.65,78.05"/>
	<path class="st2" d="M260.68,79v-6.27h0.96v0.95c0.24-0.44,0.47-0.74,0.68-0.88c0.2-0.14,0.43-0.21,0.68-0.21
		c0.36,0,0.72,0.11,1.09,0.34l-0.37,0.99c-0.26-0.15-0.52-0.23-0.78-0.23c-0.23,0-0.44,0.07-0.63,0.21
		c-0.19,0.14-0.32,0.33-0.39,0.58c-0.12,0.38-0.18,0.79-0.18,1.24V79H260.68z"/>
	<path class="st2" d="M268.83,79v-0.92c-0.49,0.71-1.15,1.06-1.99,1.06c-0.37,0-0.72-0.07-1.04-0.21c-0.32-0.14-0.56-0.32-0.71-0.53
		c-0.16-0.22-0.27-0.48-0.33-0.79c-0.04-0.21-0.06-0.54-0.06-0.99v-3.89h1.06v3.48c0,0.55,0.02,0.93,0.06,1.12
		c0.07,0.28,0.21,0.5,0.43,0.66c0.22,0.16,0.49,0.24,0.81,0.24c0.32,0,0.62-0.08,0.9-0.24c0.28-0.16,0.48-0.39,0.59-0.67
		c0.12-0.28,0.18-0.69,0.18-1.22v-3.36h1.06V79H268.83z"/>
	<path class="st2" d="M275.54,76.7l1.04,0.14c-0.11,0.72-0.4,1.28-0.88,1.69c-0.47,0.41-1.05,0.61-1.73,0.61
		c-0.86,0-1.55-0.28-2.07-0.84s-0.78-1.37-0.78-2.42c0-0.68,0.11-1.27,0.34-1.78c0.23-0.51,0.57-0.89,1.03-1.14
		c0.46-0.26,0.96-0.38,1.5-0.38c0.68,0,1.24,0.17,1.67,0.52c0.43,0.34,0.71,0.83,0.83,1.47l-1.03,0.16
		c-0.1-0.42-0.27-0.74-0.53-0.96c-0.25-0.21-0.55-0.32-0.91-0.32c-0.53,0-0.97,0.19-1.3,0.58c-0.34,0.38-0.5,0.99-0.5,1.82
		c0,0.84,0.16,1.45,0.49,1.84c0.32,0.38,0.74,0.57,1.26,0.57c0.42,0,0.76-0.13,1.04-0.39C275.29,77.62,275.46,77.23,275.54,76.7
		 M273.07,79.79l0.31-1.05h0.79l-0.19,0.64c0.33,0.04,0.59,0.14,0.75,0.31c0.17,0.17,0.26,0.35,0.26,0.56
		c0,0.29-0.14,0.55-0.43,0.78c-0.28,0.23-0.71,0.34-1.28,0.34c-0.32,0-0.6-0.02-0.85-0.07l0.07-0.7c0.25,0.02,0.43,0.02,0.55,0.02
		c0.37,0,0.63-0.05,0.78-0.15c0.11-0.08,0.17-0.18,0.17-0.29c0-0.07-0.02-0.13-0.07-0.19c-0.05-0.06-0.13-0.1-0.25-0.14
		C273.56,79.81,273.35,79.79,273.07,79.79"/>
	<path class="st2" d="M281.59,78.22c-0.39,0.34-0.77,0.57-1.14,0.71c-0.36,0.14-0.75,0.21-1.17,0.21c-0.69,0-1.22-0.17-1.59-0.51
		c-0.37-0.34-0.56-0.77-0.56-1.29c0-0.31,0.07-0.59,0.21-0.85c0.14-0.25,0.32-0.46,0.55-0.61c0.23-0.15,0.48-0.27,0.77-0.35
		c0.21-0.06,0.52-0.11,0.94-0.16c0.86-0.1,1.49-0.23,1.9-0.37c0-0.15,0-0.24,0-0.28c0-0.43-0.1-0.74-0.3-0.92
		c-0.27-0.24-0.68-0.36-1.21-0.36c-0.5,0-0.87,0.09-1.11,0.26c-0.24,0.18-0.41,0.49-0.53,0.93l-1.04-0.14
		c0.09-0.45,0.25-0.81,0.47-1.08c0.21-0.27,0.53-0.49,0.94-0.63c0.41-0.15,0.88-0.22,1.42-0.22c0.54,0,0.97,0.06,1.31,0.19
		c0.33,0.13,0.58,0.28,0.74,0.47c0.16,0.19,0.26,0.43,0.33,0.72c0.03,0.18,0.05,0.51,0.05,0.98v1.42c0,0.99,0.02,1.61,0.07,1.88
		c0.04,0.26,0.13,0.51,0.27,0.75h-1.11C281.69,78.78,281.62,78.52,281.59,78.22 M281.5,75.85c-0.39,0.16-0.97,0.29-1.74,0.4
		c-0.44,0.06-0.75,0.13-0.93,0.21c-0.18,0.08-0.32,0.19-0.42,0.35c-0.1,0.15-0.15,0.32-0.15,0.5c0,0.28,0.11,0.52,0.32,0.71
		c0.21,0.19,0.53,0.28,0.94,0.28c0.41,0,0.77-0.09,1.09-0.27c0.32-0.18,0.56-0.43,0.7-0.73c0.11-0.24,0.17-0.6,0.17-1.06V75.85z
		 M278.05,71.8c0-0.41,0.11-0.74,0.34-0.98c0.23-0.24,0.51-0.36,0.86-0.36c0.24,0,0.58,0.1,1,0.32c0.23,0.12,0.42,0.18,0.56,0.18
		c0.13,0,0.22-0.04,0.29-0.1c0.07-0.07,0.11-0.21,0.14-0.41H282c-0.01,0.45-0.12,0.79-0.34,1.01c-0.21,0.23-0.49,0.34-0.82,0.34
		c-0.24,0-0.57-0.11-0.98-0.33c-0.26-0.14-0.46-0.21-0.58-0.21c-0.14,0-0.24,0.05-0.33,0.14c-0.09,0.09-0.13,0.23-0.12,0.42H278.05z
		"/>
	<path class="st2" d="M283.82,75.86c0-1.16,0.32-2.02,0.97-2.58c0.54-0.46,1.2-0.7,1.97-0.7c0.86,0,1.57,0.28,2.12,0.85
		c0.55,0.56,0.82,1.34,0.82,2.34c0,0.81-0.12,1.44-0.36,1.9c-0.24,0.46-0.6,0.82-1.06,1.08c-0.46,0.26-0.97,0.38-1.52,0.38
		c-0.88,0-1.59-0.28-2.13-0.85C284.1,77.73,283.82,76.92,283.82,75.86 M284.92,75.86c0,0.81,0.18,1.41,0.53,1.8
		c0.35,0.4,0.79,0.6,1.32,0.6c0.53,0,0.97-0.2,1.32-0.6c0.35-0.4,0.53-1.01,0.53-1.84c0-0.77-0.17-1.36-0.53-1.77
		c-0.35-0.4-0.79-0.6-1.32-0.6c-0.53,0-0.97,0.2-1.32,0.6C285.09,74.45,284.92,75.06,284.92,75.86"/>
	<path class="st3" d="M22.51,55.1v-0.14c0-0.53-0.18-0.92-0.53-1.17c-0.35-0.25-0.91-0.37-1.68-0.37h-3.35
		c-1.44,0-2.36,0.17-2.76,0.52c-0.41,0.34-0.61,1.07-0.61,2.17v1.91c0,0.99,0.23,1.67,0.68,2.03c0.45,0.37,1.35,0.55,2.7,0.55h2.43
		c1.33,0,2.2-0.13,2.62-0.4c0.41-0.26,0.62-0.76,0.62-1.48v-0.15h4.25c0,0.02,0,0.06,0.01,0.1c0.02,0.4,0.03,0.7,0.03,0.89
		c0,0.88-0.11,1.6-0.34,2.18c-0.22,0.57-0.56,1.03-1.04,1.37c-0.45,0.33-1.04,0.57-1.79,0.71c-0.75,0.14-1.84,0.21-3.28,0.21h-4.68
		c-1.43,0-2.48-0.08-3.16-0.23c-0.67-0.15-1.25-0.41-1.73-0.78c-0.56-0.44-0.96-0.97-1.21-1.61c-0.25-0.64-0.38-1.44-0.38-2.41
		v-3.74c0-1.96,0.47-3.33,1.4-4.11c0.93-0.77,2.62-1.16,5.07-1.16h4.68c1.5,0,2.61,0.07,3.32,0.2c0.71,0.13,1.28,0.36,1.69,0.68
		c0.43,0.33,0.75,0.78,0.96,1.34c0.21,0.56,0.31,1.26,0.31,2.11c0,0.2,0,0.36,0,0.47c0,0.11-0.02,0.21-0.03,0.31H22.51z"/>
	<path class="st3" d="M35.81,64.03c-1.6,0-2.77-0.07-3.52-0.21c-0.74-0.15-1.34-0.39-1.81-0.74c-0.53-0.39-0.91-0.91-1.14-1.54
		c-0.23-0.64-0.35-1.48-0.35-2.53v-3.74c0-1.15,0.11-2.06,0.35-2.72c0.23-0.67,0.62-1.2,1.14-1.6c0.46-0.34,1.07-0.59,1.84-0.74
		c0.77-0.15,1.92-0.22,3.48-0.22h4.93c1.56,0,2.72,0.07,3.49,0.22c0.77,0.15,1.38,0.39,1.84,0.74c0.51,0.39,0.88,0.92,1.12,1.58
		c0.24,0.67,0.36,1.52,0.36,2.57v3.82c0,1.06-0.12,1.92-0.36,2.57c-0.24,0.66-0.61,1.18-1.12,1.58c-0.46,0.35-1.07,0.6-1.82,0.74
		c-0.75,0.14-1.92,0.21-3.51,0.21H35.81z M36.95,60.61h2.66c1.48,0,2.46-0.19,2.95-0.56c0.49-0.37,0.73-1.06,0.73-2.07v-1.94
		c0-1.01-0.24-1.7-0.73-2.07c-0.49-0.37-1.47-0.56-2.95-0.56h-2.68c-1.51,0-2.5,0.19-2.97,0.56c-0.47,0.38-0.7,1.09-0.7,2.14v1.91
		c0,0.99,0.25,1.67,0.74,2.03C34.49,60.42,35.47,60.61,36.95,60.61"/>
</g>
<polygon class="st4" points="68.68,63.87 62.55,63.87 54.33,53.9 54.33,63.87 50.15,63.87 50.15,50.16 56.35,50.16 64.51,60.21 
	64.51,50.16 68.68,50.16 "/>
<g>
	<defs>
		<rect id="SVGID_5_" x="9.3" y="6.71" width="280.4" height="74.7"/>
	</defs>
	<clipPath id="SVGID_6_">
		<use xlink:href="#SVGID_5_"  style="overflow:visible;"/>
	</clipPath>
	<path class="st5" d="M71.32,59.31l4.13-0.01v0.25c0,0.51,0.12,0.86,0.38,1.04c0.25,0.18,0.78,0.27,1.58,0.27h5.26
		c0.52,0,0.88-0.09,1.11-0.26c0.22-0.17,0.33-0.46,0.33-0.86c0-0.41-0.13-0.71-0.38-0.89c-0.25-0.17-0.8-0.3-1.64-0.36l-6.58-0.15
		c-1.65-0.05-2.76-0.36-3.34-0.94c-0.58-0.58-0.87-1.63-0.87-3.15c0-0.79,0.08-1.43,0.23-1.94c0.15-0.51,0.4-0.94,0.74-1.27
		c0.4-0.38,0.92-0.65,1.57-0.81c0.64-0.16,1.69-0.24,3.14-0.24h6.39c1.58,0,2.72,0.29,3.42,0.86c0.7,0.58,1.05,1.52,1.05,2.81
		c0,0.08,0,0.17-0.01,0.28c0,0.09-0.01,0.26-0.03,0.48h-4.04v-0.06c0-0.45-0.11-0.79-0.34-1.02S82.85,53,82.39,53h-4.82
		c-0.81,0-1.34,0.08-1.6,0.24c-0.26,0.16-0.39,0.44-0.39,0.84c0,0.39,0.12,0.68,0.35,0.85c0.23,0.18,0.66,0.29,1.29,0.34l6.89,0.11
		c1.57,0.05,2.68,0.4,3.32,1.06c0.64,0.66,0.96,1.79,0.96,3.4c0,0.95-0.12,1.69-0.36,2.21c-0.23,0.52-0.64,0.97-1.19,1.34
		c-0.37,0.23-0.87,0.4-1.5,0.5c-0.63,0.1-1.54,0.15-2.74,0.15h-5.58c-2.29,0-3.82-0.26-4.6-0.77c-0.77-0.51-1.16-1.47-1.16-2.86
		c0-0.08,0-0.22,0.02-0.4C71.29,59.81,71.3,59.58,71.32,59.31"/>
</g>
<polygon class="st4" points="99.87,63.87 95.68,63.87 95.68,53.52 89.95,53.52 89.95,50.16 105.6,50.16 105.6,53.52 99.87,53.52 "/>
<g>
	<defs>
		<rect id="SVGID_7_" x="9.3" y="6.71" width="280.4" height="74.7"/>
	</defs>
	<clipPath id="SVGID_8_">
		<use xlink:href="#SVGID_7_"  style="overflow:visible;"/>
	</clipPath>
	<path class="st6" d="M118.48,53.58h-6.65v3.35h6.65c0.56,0,0.95-0.13,1.18-0.39c0.22-0.26,0.34-0.73,0.34-1.41
		c0-0.54-0.12-0.94-0.36-1.18C119.39,53.7,119.01,53.58,118.48,53.58 M118.63,50.16c2.18,0,3.65,0.32,4.44,0.97
		c0.79,0.64,1.18,1.82,1.18,3.53c0,1.18-0.17,2.07-0.53,2.64c-0.35,0.58-0.94,0.96-1.75,1.16c0.72,0.17,1.26,0.48,1.63,0.91
		c0.36,0.44,0.54,1,0.54,1.7v2.81h-4.19v-2.09c0-0.54-0.13-0.91-0.38-1.11c-0.25-0.21-0.75-0.31-1.5-0.31h-6.24v3.51h-4.2V50.16
		H118.63z"/>
	<path class="st6" d="M126.98,50.16h4.18v8.13c0,0.93,0.21,1.55,0.63,1.86c0.42,0.32,1.34,0.47,2.75,0.47h2.38
		c1.17,0,1.96-0.17,2.36-0.5c0.39-0.34,0.6-0.95,0.6-1.84v-8.13h4.19v9.43c0,1.62-0.43,2.76-1.31,3.44
		c-0.86,0.68-2.37,1.01-4.51,1.01h-4.68c-2.51,0-4.24-0.32-5.18-0.97c-0.94-0.64-1.41-1.8-1.41-3.48V50.16z"/>
	<path class="st7" d="M159.99,55.1v-0.14c0-0.53-0.17-0.92-0.53-1.17c-0.35-0.25-0.91-0.37-1.67-0.37h-3.36
		c-1.43,0-2.35,0.17-2.76,0.52c-0.41,0.34-0.61,1.07-0.61,2.17v1.91c0,0.99,0.23,1.67,0.68,2.03c0.45,0.37,1.35,0.55,2.69,0.55h2.43
		c1.33,0,2.2-0.13,2.62-0.4c0.42-0.26,0.62-0.76,0.62-1.48v-0.15h4.25c0,0.02,0,0.06,0.01,0.1c0.02,0.4,0.03,0.7,0.03,0.89
		c0,0.88-0.11,1.6-0.34,2.18c-0.22,0.57-0.56,1.03-1.04,1.37c-0.45,0.33-1.04,0.57-1.79,0.71c-0.74,0.14-1.84,0.21-3.28,0.21h-4.68
		c-1.43,0-2.48-0.08-3.16-0.23c-0.67-0.15-1.25-0.41-1.73-0.78c-0.55-0.44-0.96-0.97-1.21-1.61c-0.25-0.64-0.38-1.44-0.38-2.41
		v-3.74c0-1.96,0.47-3.33,1.4-4.11c0.93-0.77,2.62-1.16,5.07-1.16h4.68c1.5,0,2.61,0.07,3.33,0.2c0.71,0.13,1.28,0.36,1.69,0.68
		c0.43,0.33,0.75,0.78,0.96,1.34c0.21,0.56,0.31,1.26,0.31,2.11c0,0.2,0,0.36,0,0.47c0,0.11-0.02,0.21-0.03,0.31H159.99z"/>
	<path class="st7" d="M173.3,64.03c-1.6,0-2.77-0.07-3.52-0.21c-0.74-0.15-1.35-0.39-1.81-0.74c-0.53-0.39-0.91-0.91-1.14-1.54
		c-0.23-0.64-0.35-1.48-0.35-2.53v-3.74c0-1.15,0.11-2.06,0.35-2.72c0.23-0.67,0.62-1.2,1.14-1.6c0.46-0.34,1.07-0.59,1.84-0.74
		c0.77-0.15,1.92-0.22,3.48-0.22h4.93c1.56,0,2.72,0.07,3.49,0.22c0.77,0.15,1.38,0.39,1.84,0.74c0.51,0.39,0.88,0.92,1.12,1.58
		c0.24,0.67,0.36,1.52,0.36,2.57v3.82c0,1.06-0.12,1.92-0.36,2.57c-0.24,0.66-0.61,1.18-1.12,1.58c-0.46,0.35-1.07,0.6-1.82,0.74
		c-0.75,0.14-1.92,0.21-3.51,0.21H173.3z M174.43,60.61h2.66c1.48,0,2.46-0.19,2.95-0.56c0.49-0.37,0.73-1.06,0.73-2.07v-1.94
		c0-1.01-0.24-1.7-0.73-2.07c-0.49-0.37-1.47-0.56-2.95-0.56h-2.68c-1.51,0-2.5,0.19-2.97,0.56c-0.47,0.38-0.7,1.09-0.7,2.14v1.91
		c0,0.99,0.25,1.67,0.74,2.03C171.98,60.42,172.96,60.61,174.43,60.61"/>
</g>
<polygon class="st1" points="191.71,63.87 187.64,63.87 187.64,50.16 193.82,50.16 198.71,58.72 203.68,50.16 209.78,50.16 
	209.78,63.87 205.72,63.87 205.72,54.1 200.06,63.87 197.32,63.87 191.71,54.1 "/>
<g>
	<defs>
		<rect id="SVGID_9_" x="9.3" y="6.71" width="280.4" height="74.7"/>
	</defs>
	<clipPath id="SVGID_10_">
		<use xlink:href="#SVGID_9_"  style="overflow:visible;"/>
	</clipPath>
	<path class="st8" d="M223.09,53.58h-6.17v3.47h6.17c0.56,0,0.95-0.13,1.17-0.41c0.23-0.27,0.34-0.76,0.34-1.46
		c0-0.56-0.12-0.96-0.36-1.22C224,53.71,223.62,53.58,223.09,53.58 M223.24,50.16c0.94,0,1.68,0.04,2.24,0.13
		c0.55,0.09,1.02,0.24,1.41,0.44c0.7,0.36,1.2,0.9,1.51,1.62c0.31,0.71,0.47,1.7,0.47,2.96c0,1.88-0.32,3.2-0.94,3.98
		c-0.63,0.78-1.69,1.16-3.17,1.16h-7.83v3.42h-4.2V50.16H223.24z"/>
</g>
<path class="st1" d="M236.26,58.29h5.27l-2.66-4.85L236.26,58.29z M233.34,63.87h-4.57l7.48-13.71h5.34l7.35,13.71h-4.59l-1.33-2.28
	h-8.35L233.34,63.87z"/>
<polygon class="st1" points="268.99,63.87 262.86,63.87 254.63,53.9 254.63,63.87 250.46,63.87 250.46,50.16 256.65,50.16 
	264.82,60.21 264.82,50.16 268.99,50.16 "/>
<polygon class="st1" points="282.1,63.87 277.91,63.87 277.91,58.95 270.35,50.16 275.5,50.16 280,55.61 284.71,50.16 289.67,50.16 
	282.1,58.95 "/>
<g>
	<defs>
		<rect id="SVGID_11_" x="9.3" y="6.71" width="280.4" height="74.7"/>
	</defs>
	<clipPath id="SVGID_12_">
		<use xlink:href="#SVGID_11_"  style="overflow:visible;"/>
	</clipPath>
	<path class="st9" d="M192.8,21.06c-0.43,0.18-0.88,0.36-1.36,0.53c-2.8,1-6.55,1.86-11.01,2.54c-4.25,0.65-9.21,1.16-14.64,1.52
		c-5.25,0.34-10.93,0.53-16.84,0.53c-6.33,0-12.38-0.21-17.91-0.6c-5.74-0.4-10.92-0.99-15.26-1.72c-4.58-0.77-8.3-1.77-10.9-2.96
		v-3.87c0.48,0.31,1.3,0.66,2.42,1.03c2.12,0.7,5.23,1.39,9.1,2.05c4.23,0.71,9.29,1.28,14.92,1.67c5.42,0.38,11.37,0.59,17.63,0.59
		c5.84,0,11.43-0.19,16.57-0.52c5.32-0.34,10.17-0.85,14.34-1.49c3.97-0.6,7.25-1.29,9.64-2.03c1.47-0.45,2.59-0.91,3.3-1.37V21.06z
		 M192.8,35.38c-0.43,0.18-0.88,0.36-1.37,0.53c-2.8,1-6.55,1.86-11.01,2.54c-4.25,0.65-9.21,1.17-14.64,1.52
		c-5.25,0.34-10.93,0.53-16.84,0.53c-6.33,0-12.38-0.22-17.91-0.6c-5.74-0.4-10.92-0.99-15.26-1.72c-4.58-0.77-8.3-1.77-10.9-2.95
		v-3.87c0.48,0.32,1.31,0.66,2.44,1.03c2.12,0.7,5.23,1.39,9.09,2.04c4.23,0.71,9.29,1.29,14.92,1.68
		c5.42,0.38,11.37,0.58,17.63,0.58c5.83,0,11.42-0.18,16.57-0.52c5.32-0.34,10.18-0.85,14.34-1.48c3.97-0.6,7.25-1.29,9.64-2.03
		c1.47-0.45,2.59-0.92,3.3-1.37V35.38z M118.86,16.16c2.03-0.28,4.2-0.54,6.47-0.77c2.39-0.24,4.89-0.43,7.47-0.6
		c2.57-0.16,5.24-0.28,7.97-0.36s5.47-0.13,8.19-0.13v0l1.32,0.01l0.66,0l0.62,0v2.9l-0.65-0.01l-0.65,0h-1.3v0
		c-2.78,0-5.51,0.04-8.14,0.12c-2.67,0.08-5.3,0.2-7.85,0.36c-1.83,0.11-3.62,0.24-5.35,0.39c-2.29-0.25-4.41-0.54-6.34-0.87
		c-0.82-0.14-1.61-0.28-2.35-0.42L118.86,16.16z M192.8,27.75c-0.5,0.22-1.04,0.43-1.62,0.63c-2.75,0.96-6.44,1.8-10.82,2.46
		c-4.24,0.65-9.19,1.16-14.6,1.52c-5.24,0.34-10.91,0.53-16.81,0.53c-6.32,0-12.36-0.21-17.88-0.6c-5.73-0.4-10.89-0.99-15.22-1.71
		c-4.59-0.77-8.3-1.76-10.84-2.91l-0.13-0.06v-2.98c0.51,0.29,1.2,0.59,2.08,0.9c2.18,0.77,5.39,1.51,9.37,2.18
		c4.24,0.71,9.32,1.29,14.96,1.68c5.43,0.38,11.4,0.59,17.66,0.59c5.85,0,11.45-0.18,16.61-0.52c5.33-0.34,10.2-0.85,14.37-1.49
		c4.03-0.61,7.38-1.32,9.82-2.1c1.29-0.41,2.32-0.82,3.05-1.24V27.75z M104.88,11.99c2.6-1.18,6.32-2.18,10.9-2.96
		c4.34-0.73,9.52-1.32,15.26-1.72c5.53-0.38,11.58-0.6,17.92-0.6v0h0.3c0.11,0,0.29,0,1.02,0.01l1.28,0.01v3.8l-0.65-0.01h-0.64
		h-0.24c-0.17,0-0.47,0-1.07,0c-6.26,0-12.21,0.21-17.63,0.58c-5.63,0.39-10.69,0.96-14.92,1.68c-3.87,0.65-6.98,1.35-9.1,2.04
		c-1.12,0.37-1.94,0.71-2.42,1.03V11.99z"/>
</g>
</svg>
